<?xml version="1.0" encoding="UTF-8"?>
<svg id="Layer_1" data-name="Layer 1" xmlns="http://www.w3.org/2000/svg" viewBox="0 0 293.12 416.92">
  <defs>
    <style>
      .cls-1 {
        fill: #f7cab2;
      }

      .cls-2 {
        fill: #606060;
        opacity: .3;
      }

      .cls-3 {
        fill: #192f5b;
      }

      .cls-4 {
        fill: #fff;
      }

      .cls-5 {
        fill: #ff5d7d;
      }

      .cls-6 {
        fill: #3d232c;
      }

      .cls-7 {
        fill: #f2446e;
      }

      .cls-8 {
        fill: #ce720d;
      }

      .cls-9 {
        fill: #fcb72d;
      }

      .cls-10 {
        opacity: .11;
      }

      .cls-11 {
        fill: #5e3643;
      }

      .cls-12 {
        fill: #0c1a3b;
      }

      .cls-13 {
        fill: #e04167;
      }

      .cls-14 {
        fill: #132644;
      }

      .cls-15 {
        fill: #456189;
      }

      .cls-16 {
        fill: #f7941e;
      }

      .cls-17 {
        fill: #ea3f68;
      }
    </style>
  </defs>
  <rect class="cls-4" x="56.27" y="181.06" width="236.85" height="2.43"/>
  <path class="cls-2" d="M230.82,398.17c0,10.36-34.23,18.75-76.46,18.75s-76.46-8.39-76.46-18.75,34.23-18.75,76.46-18.75,76.46,8.4,76.46,18.75Z"/>
  <g>
    <g>
      <path class="cls-9" d="M152.52,136.22s-30.09,8.02-42.21,35.71c-12.12,27.68-7.01,47.34-2.91,53.89,4.11,6.55,5.2,28.33,.61,40.62,0,0,5.24-16.38,4.91-40.62-.33-24.24,9.26-24.24,14.71-42.26,5.44-18.02,14.29-34.56,14.78-35.21,.49-.66,7.54-8.85,7.54-8.85l2.57-3.27Z"/>
      <g>
        <path class="cls-9" d="M84.23,215s.98-63.38,50.61-88.44c0,0-11.97,22.85-13.85,39.06-1.87,16.22-14.65,29.73-19.56,35.62-4.92,5.89-17.2,13.76-17.2,13.76Z"/>
        <path d="M112.26,155.66c-1.79,3.27-3.69,7.2-5.43,11.53-1.75,4.33-3.41,9.02-4.91,13.76-1.46,4.75-2.77,9.55-3.89,14.07-1.07,4.29-1.89,8.34-2.58,11.87,.24-.2,.48-.39,.71-.59,.75-3.34,1.67-7.08,2.69-11.07,1.16-4.5,2.51-9.27,4-13.99,2.9-9.47,6.5-18.73,9.9-25.32,1.71-3.29,3.29-5.96,4.55-7.73,1.24-1.78,2.06-2.72,2.06-2.72,0,0-.86,.9-2.19,2.62-1.33,1.72-3.11,4.29-4.91,7.56Z"/>
      </g>
      <g>
        <path class="cls-9" d="M57.78,147.5c.43,1.17,.84,2.36,1.24,3.56,.26-.07,.55-.11,.87-.11,4,0,4.4,5.7,1.05,6.6,.71,2.78,1.26,5.5,1.56,8.06,1.88,16.22,14.66,29.73,19.57,35.62,4.92,5.89,17.2,13.76,17.2,13.76,0,0-.98-63.38-50.61-88.44,0,0,3.49,6.67,7,15.35,2.88,.32,3.62,3.78,2.14,5.6Zm9.96,13.03c4.34,0,4.46,6.73,.12,6.73s-4.46-6.73-.12-6.73Z"/>
        <path d="M71.22,155.66c1.79,3.27,3.7,7.2,5.44,11.53,1.75,4.33,3.41,9.02,4.91,13.76,1.46,4.75,2.77,9.55,3.89,14.07,1.07,4.29,1.89,8.34,2.58,11.87-.24-.2-.47-.39-.71-.59-.74-3.34-1.66-7.08-2.69-11.07-1.16-4.5-2.5-9.27-4-13.99-2.9-9.47-6.5-18.73-9.9-25.32-1.71-3.29-3.29-5.96-4.55-7.73-1.24-1.78-2.05-2.72-2.05-2.72,0,0,.85,.9,2.18,2.62,1.33,1.72,3.11,4.29,4.91,7.56Z"/>
      </g>
      <g>
        <path d="M106.05,348s-6.88-33.08-7.86-38.33c-.98-5.24-1.8-25.55-9.5-27.35-7.7-1.8-15.48,6.51-15.48,6.51,0,0,18.67,5.41,23.71,20.51,5.04,15.11,8.11,38.65,8.11,38.65h1.02Z"/>
        <path class="cls-9" d="M33.04,297.06c2.56-4.15,5.45-7.28,8.33-9.66,.62,.61,1.48,.99,2.41,.99h.25c1.83,0,3.34-1.62,3.3-3.42,0-.49-.13-.94-.32-1.35,4.97-2.61,9.18-3.08,10.55-2.56,2.62,.98,11.88,1.88,19.08,.61,7.21-1.27,12.04,.65,12.04,.65,0,0-12.96,6.08-15.48,6.51-2.52,.43-10.56,3.81-20.76,12.53-10.19,8.72-28.25,31.32-30.46,31.69-2.21,.37,2.09-21.5,11.05-35.99Z"/>
        <path d="M63.91,282.1c1.04,.11,.75,.06,1.94,.12-11.52,3.29-35.59,14.12-43.24,47.88,0,0,4.23-34.76,41.3-48Z"/>
      </g>
      <g>
        <path d="M109.54,348s6.88-33.08,7.86-38.33c.99-5.24,1.8-25.55,9.5-27.35,7.7-1.8,15.48,6.51,15.48,6.51,0,0-18.67,5.41-23.71,20.51-5.04,15.11-8.11,38.65-8.11,38.65h-1.02Z"/>
        <path class="cls-9" d="M126.89,282.32s4.83-1.92,12.04-.65c7.21,1.27,16.46,.37,19.08-.61,2.62-.98,15.56,1.52,24.53,16.01,8.97,14.5,13.27,36.36,11.05,35.99-2.21-.37-20.27-22.97-30.47-31.69-10.19-8.72-18.24-12.1-20.76-12.53-2.52-.43-15.48-6.51-15.48-6.51Z"/>
        <path d="M151.68,282.1c-1.03,.11-.75,.06-1.94,.12,11.51,3.29,35.59,14.12,43.24,47.88,0,0-4.24-34.76-41.31-48Z"/>
      </g>
      <g>
        <path class="cls-9" d="M4.5,220.24s17.69-13.1,36.69-.82c2.51,1.63,4.75,3.19,6.78,4.71,.47-.96,1.4-1.69,2.82-1.69,3.34,0,4.17,3.98,2.4,5.82,.9,.75,1.76,1.49,2.59,2.22,.45-.26,.99-.42,1.64-.42,2.76,0,3.8,2.71,3.09,4.7,5.98,5.5,11.5,10.64,21.29,16.11,18.18,10.15,19.49,30.63,19.49,39.8s4.1,16.54,3.6,22.6c-.49,6.06,1.14,34.72,1.14,34.72h1.96s.33-69.92-1.96-74.59c-2.3-4.68-11.3-29.9-13.1-37.76-1.8-7.86-1.15-12.45-1.15-12.45,0,0-5.24-11.63-20.31-14.58-15.07-2.95-20.31-4.59-25.39-7.86-5.07-3.27-32.27-5.41-41.6,19.49Zm64.47,7.61c4.34,0,4.46,6.73,.12,6.73s-4.46-6.73-.12-6.73Z"/>
        <path d="M39.57,210.51c1.6,.11,3.39,.36,5.35,.71,1.94,.38,4.03,.84,6.21,1.47,2.18,.61,4.45,1.37,6.76,2.24,2.31,.88,4.66,1.89,7.01,2.99,2.33,1.12,4.69,2.31,6.98,3.61,8,4.52,15.42,9.95,21.19,14.63,.04,.15,.08,.3,.11,.47-5.84-4.69-13.4-10.15-21.55-14.66-2.28-1.31-4.61-2.51-6.93-3.65-2.33-1.11-4.66-2.14-6.96-3.03-2.3-.88-4.55-1.66-6.71-2.29-2.16-.64-4.25-1.11-6.17-1.51-1.94-.34-3.72-.64-5.31-.79-1.59-.22-2.99-.2-4.14-.29-2.3-.01-3.61,.03-3.61,.03,0,0,1.31-.07,3.61-.11,1.15,.06,2.55,.01,4.15,.2Z"/>
      </g>
      <g>
        <path class="cls-9" d="M100.77,344.78h1.97s1.64-28.66,1.15-34.72c-.49-6.06,3.6-13.43,3.6-22.6s1.31-29.64,19.49-39.8c18.18-10.16,21.62-19.16,40.62-31.45,19-12.28,36.69,.82,36.69,.82-6.66-17.75-22.38-21.76-32.7-21.41,.81,1.99-.13,4.73-2.91,4.73-2.39,0-3.5-2.05-3.28-3.89-1.17,.32-2.11,.69-2.71,1.08-5.08,3.28-10.32,4.92-25.39,7.86-15.07,2.95-20.31,14.58-20.31,14.58,0,0,.65,4.59-1.14,12.45-1.81,7.86-10.81,33.08-13.11,37.76-2.3,4.68-1.97,74.6-1.97,74.6Zm38.96-139.7c4.33,0,4.46,6.73,.12,6.73s-4.46-6.73-.12-6.73Z"/>
        <path d="M169.22,207.29c-1.6,.11-3.4,.36-5.35,.7-1.94,.38-4.03,.84-6.21,1.47-2.18,.62-4.45,1.37-6.76,2.24-2.31,.88-4.66,1.89-7.01,2.99-2.34,1.12-4.69,2.31-6.99,3.61-8,4.52-15.42,9.94-21.2,14.63-.03,.15-.07,.3-.11,.47,5.84-4.69,13.4-10.15,21.55-14.67,2.27-1.31,4.61-2.51,6.93-3.65,2.33-1.11,4.66-2.13,6.95-3.03,2.3-.88,4.55-1.66,6.71-2.29,2.16-.64,4.25-1.11,6.17-1.51,1.93-.34,3.72-.64,5.31-.79,1.59-.22,2.99-.2,4.13-.29,2.3,0,3.62,.03,3.62,.03,0,0-1.31-.07-3.62-.11-1.15,.07-2.55,.01-4.15,.2Z"/>
      </g>
      <path class="cls-9" d="M71.85,181.83s-7.49-3.68-16.08-3.6c-8.6,.08-11.3-2.54-14.09-3.69-2.78-1.14-27.27,2.21-41.68,21.05,0,0,17.85-9.66,41.19-12.04,23.34-2.38,20.23-.98,20.23-.98l7.37,1.8,3.07-2.54Z"/>
      <path d="M108.02,348s-.33-62.89,0-81.57c.33-18.67-6.88-56.34-11.14-67.15-4.25-10.81-31.28-26.37-55.69-15.72,0,0,15.07,.16,19,4.75,3.93,4.59,13.59,16.38,19.16,20.47,5.56,4.09,8.02,31.12,14.9,44.88,6.88,13.76,11.14,19.82,11.79,31.12,.65,11.3,1.13,63.22,1.13,63.22h.84Z"/>
      <path d="M171.36,135.15s-22.72-3.68-33.78,10.32c-11.06,14.01-37.72,48.65-29.55,69.53,8.17,20.88-.02,51.43-.02,51.43,0,0,8.44-16.58,7.45-42.97-.98-26.39,13.76-29.59,24.81-57.1,11.05-27.52,18.67-29.98,31.07-31.2Z"/>
      <polygon points="109.54 259.43 109.08 348 108.02 348 108.12 266.03 109.54 259.43"/>
      <path d="M99.25,284.45s-1.37,8.19,3.49,24.4v39.15h1.18v-38.16s5.52-12.61,12.5-15.4c0,0-13-9.33-17.17-9.99Z"/>
      <path d="M114.89,292.8s-1.37-17.79,4.65-24.13c6.02-6.34,22.25-8.18,28.64-23.12,6.39-14.94,13.64-24.26,13.64-24.26,0,0-32.88,7.48-42.28,24.26-9.39,16.78-7.1,47.25-7.1,47.25h2.45Z"/>
      <path class="cls-9" d="M140.88,228.6s19.8-7.97,34.75-2.98c14.96,4.99,17.22-4.33,17.22-4.33,0,0-.9,2.51-16.54-1.11-15.64-3.63-27.37,1.88-35.43,8.42Z"/>
    </g>
    <g>
      <path d="M82.83,331.96s.02,0,.02,0c-2.17,25.24,15.41,42.96,36.93,51.23-1.78,1.02-3.66,1.85-5.62,2.47h-16.19c-12.66-3.96-21.95-16.95-21.95-32.39,0-8.09,2.56-15.52,6.81-21.32Z"/>
      <path d="M82.81,331.96c1.9,.81,11.68,1.43,23.47,1.43,11.14,0,20.48-.55,23.09-1.3,4.19,5.78,6.71,13.15,6.71,21.18,0,13.04-6.63,24.34-16.33,29.92-21.52-8.27-39.11-25.99-36.93-51.23Z"/>
    </g>
    <g>
      <path class="cls-9" d="M122.11,280.88s-11.06,4.9-22.85,3.59c0,0,28.51,11.14,28.38,78.94,0,0,16.58-42.22-5.53-82.53Z"/>
      <path d="M114.3,283.35c.22,.32,.44,.63,.67,.96,.95,1.36,1.84,2.92,2.84,4.55,.89,1.68,1.95,3.39,2.78,5.3,.44,.94,.89,1.9,1.34,2.87,.4,.99,.8,2,1.21,3.01,.87,2,1.48,4.14,2.2,6.24,.68,2.11,1.12,4.29,1.68,6.4,.47,2.13,.79,4.26,1.18,6.3,.32,2.05,.45,4.06,.65,5.95,.25,1.89,.17,3.7,.24,5.36,.02,1.66,.14,3.18,0,4.52-.08,1.34-.15,2.52-.21,3.48-.12,1.93-.19,3.03-.19,3.03,0,0,.01-1.1,.02-3.04,0-.96,.01-2.14,.02-3.48,.06-1.34-.14-2.85-.2-4.5-.13-1.65-.1-3.44-.41-5.31-.26-1.87-.46-3.85-.78-5.88-.4-2.02-.74-4.12-1.23-6.22-.58-2.09-1.03-4.24-1.73-6.32-.69-2.08-1.28-4.2-2.12-6.2-.39-1-.78-2.01-1.17-2.99-.44-.96-.87-1.92-1.3-2.85-.82-1.89-1.8-3.62-2.63-5.32-.94-1.64-1.78-3.22-2.69-4.6-.25-.4-.49-.76-.73-1.14,.18-.03,.35-.08,.52-.12Z"/>
    </g>
  </g>
  <g>
    <path class="cls-12" d="M175.9,15.27s12.31,.92,15.39,18.3c3.1,17.49,19.55,8.89,30.19,37.43l-76.75,16.98s16.54-20.27,12.31-27.73c-4.24-7.46-12.33-29.51,3.26-37.25l15.6-7.73Z"/>
    <g>
      <path class="cls-14" d="M143.1,157.7l-18.72,81.93,13.31,125.6,22.52-5.32,13.47-122s4.96-92.41,4.67-89.62c-.29,2.78-35.25,9.41-35.25,9.41Z"/>
      <path class="cls-14" d="M149.68,367.31s-18.92,23.43-9.23,25.11c6.61,1.15,17.46-12.17,18.25-12.96,.79-.8,4.5-3.36,4.5-4.32,1.15-4.14-1.92-7.55-3.95-8.79"/>
      <path class="cls-17" d="M143.1,295.67l7.55,70.09s-10.48,16.13-4.91,16.13,14.11-15.03,14.11-15.03c0,0,2.75-52.66,2.75-71.18"/>
      <path class="cls-5" d="M143.85,316.81l-10.33,70.09s-10.48,16.13-4.91,16.13,14.11-15.03,14.11-15.03c0,0,20.63-52.65,20.63-71.18"/>
      <path class="cls-15" d="M171.9,157.53c-16.99,0-24.88-3.68-24.99-3.73l.37-.77c.15,.07,14.95,6.94,47.93,1.65l.14,.84c-9.18,1.47-16.97,2.01-23.44,2.01Z"/>
      <path class="cls-15" d="M145.41,161.31c-2.5,0-4.41-.63-4.45-.64l.27-.8c.37,.12,9.02,2.97,13.16-4.44l.74,.42c-2.5,4.47-6.58,5.47-9.73,5.47Z"/>
      <path class="cls-3" d="M165.57,153.42l-27.87,98.89-1.73,116.31,33.58-8.7,13.96-102.59s29.93-50.26,27.78-71.21-6.93-32.7-6.93-32.7h-38.79Z"/>
      <path class="cls-3" d="M132.55,388.45s-18.92,23.44-9.23,25.12c6.61,1.15,17.46-12.17,18.25-12.96,.79-.79,4.5-3.35,4.5-4.32,1.15-4.14-1.06-10.49-3.09-11.73"/>
      <path class="cls-15" d="M163.78,362.06l-.85-.07c.35-3.87,8.54-94.81,11.94-104.36,1-2.81,2.73-6.59,4.93-11.38,10.7-23.33,30.62-66.75,13.02-103.49l.77-.37c17.77,37.09-2.26,80.76-13.01,104.21-2.19,4.77-3.92,8.54-4.9,11.32-3.36,9.44-11.81,103.2-11.89,104.14Z"/>
      <path class="cls-15" d="M159.88,328.43c-3.2-8.83-11.25-33.25-12.19-41.21l.85-.1c.93,7.9,8.95,32.21,12.15,41.02l-.8,.29Z"/>
      <path class="cls-15" d="M146.68,311.54c-.7-4.05-2.65-17.18-2.41-21.41l.85,.05c-.23,3.93,1.6,16.59,2.39,21.21l-.84,.15Z"/>
      <path class="cls-15" d="M197.2,167.24c-4.25,0-12.54-.54-16.73-4.45-1.69-1.57-2.54-3.54-2.54-5.84h.85c0,2.06,.76,3.82,2.27,5.22,5.4,5.03,18.6,4.15,18.73,4.15l.06,.85c-.14,0-1.14,.08-2.64,.08Z"/>
    </g>
    <path class="cls-16" d="M206.59,103.88c-.41-3.12-1.4-6.13-2.39-9.11-1.22-3.71-2.45-7.43-3.68-11.14-.62-1.87-1.24-3.76-2.19-5.49-2.56-4.69-5.31-9.65-10.51-10.9-5.19-1.24-12.78,1.12-17.86,2.79l-12.94-2.19q-1.29,1.31-2.44,2.61c-7.74,8.71-11.42,20.29-13.48,31.75-2.48,13.89-2.83,28.4,1.21,41.92,.52,1.74,1.17,3.55,2.58,4.69,1.56,1.27,3.71,1.45,5.72,1.56,13.52,.71,27.51,.21,39.88-5.3,3.09-1.38,6.12-3.12,8.21-5.77,1.64-2.07,2.62-4.57,3.47-7.07,2.03-5.98,3.45-12.17,4.21-18.44,.4-3.29,.63-6.64,.2-9.93Z"/>
    <path class="cls-1" d="M127.82,112.16s-2.52,37.64,2.44,42.61c8.79,8.79,62.94-4.95,62.94-4.95v-7.25l-47.82-2.23-1.29-35.61"/>
    <path class="cls-16" d="M154.76,92.4l2.48,34.35-32.86,3.07s1.13-27.01,9.78-43.57c6.65-12.73,22.87-18.4,22.87-18.4"/>
    <path class="cls-16" d="M189.71,91.06l-1.88,34.21,32.87,4.54s1.65-22.46-5.43-36.94c-10.22-20.89-27.43-25.62-27.43-25.62"/>
    <path class="cls-5" d="M163.41,51.61l1.61,13.69-7.99,2.55s2.83,19.5,7.19,26.16c7.18-5.43,23.61-26.76,23.61-26.76l-8.45-5.22-2.43-23.12"/>
    <polygon class="cls-12" points="172.09 51.33 164.5 60.86 163.69 53.3 172.09 51.33"/>
    <g>
      <path class="cls-12" d="M145.27,18.28s16.04-17.24,31.88-4.48c7.93,6.39,9.68,23.01,1.21,31.93-8.06,8.5-20.19-24.99-20.19-24.99l-12.9-2.47Z"/>
      <path class="cls-7" d="M157.79,40.91c1.46,2.56,.57,5.8-1.99,7.26-2.55,1.46-5.8,.57-7.26-1.99-1.46-2.55-.57-5.8,1.98-7.26,2.56-1.46,5.81-.57,7.26,1.99Z"/>
      <path class="cls-5" d="M170.21,53.55h0c-6.15,2.99-13.58,.59-16.19-4.35l-6.08-11.7c-3.28-6.2-1.04-13.87,5.05-17.34h0c6.23-3.56,15.25-2.01,18.8,4.22l4.79,9.46c3.71,7.32,.76,15.65-6.37,19.71Z"/>
      <polygon class="cls-12" points="162.58 23.56 173.32 33.63 176.95 19.95 162.58 23.56"/>
      <g>
        <path class="cls-12" d="M159.67,45.75c-.06,0-.12-.01-.18-.04-.11-.05-.2-.15-.24-.26l-.9-2.61c-.08-.24,.04-.49,.28-.57,.24-.09,.5,.04,.57,.28l.75,2.16,1.2-.5c.23-.1,.49,0,.59,.24,.1,.23-.01,.49-.24,.59l-1.64,.69c-.06,.02-.12,.03-.17,.03Z"/>
        <path class="cls-12" d="M162.54,31.57s-2.79,1.01-2.3,2.15c0,0,.35,.77,2.77-.16,2.41-.93,2.94-1.39,2.82-2.2-.11-.81-2.03-.35-3.29,.22Z"/>
        <path class="cls-12" d="M151.47,37.07s2.11-1.26,2.78-.28c0,0,.44,.67-1.43,1.72-1.86,1.06-2.61,1.09-3.06,.6-.51-.56,.67-1.54,1.71-2.04Z"/>
        <path class="cls-12" d="M155.55,41.72c.32,.63,.08,1.4-.53,1.7-.61,.31-1.37,.04-1.68-.59-.32-.63-.08-1.4,.54-1.7,.61-.31,1.36-.04,1.68,.59Z"/>
        <path class="cls-12" d="M165.27,36.83c.32,.63,.08,1.39-.54,1.7-.61,.31-1.36,.05-1.68-.59-.31-.63-.08-1.39,.54-1.7,.61-.31,1.36-.05,1.68,.59Z"/>
        <g>
          <path class="cls-4" d="M164.58,43.29c-2.48,0-4.75-1.35-5.94-3.52-1.78-3.27-.57-7.38,2.7-9.16,.99-.54,2.11-.82,3.23-.82,2.48,0,4.75,1.35,5.93,3.52,1.78,3.27,.57,7.38-2.7,9.16-.99,.54-2.11,.82-3.23,.82Zm-.01-12.67c-.98,0-1.96,.25-2.83,.72-2.86,1.56-3.92,5.16-2.36,8.02,1.04,1.9,3.03,3.08,5.2,3.08,.98,0,1.96-.25,2.82-.72,2.86-1.56,3.92-5.16,2.36-8.02-1.04-1.9-3.03-3.08-5.2-3.08Z"/>
          <path class="cls-4" d="M152.2,49.1c-2.41,0-4.68-1.4-5.91-3.66-.86-1.58-1.1-3.37-.69-5.05,.42-1.69,1.46-3.06,2.92-3.86,.86-.47,1.8-.71,2.79-.71,2.41,0,4.67,1.4,5.91,3.66,1.78,3.27,.78,7.27-2.23,8.91-.86,.47-1.8,.71-2.79,.71Zm-.88-12.43c-.85,0-1.66,.2-2.39,.6-1.26,.69-2.15,1.87-2.51,3.32-.36,1.47-.15,3.05,.61,4.44,1.08,1.99,3.06,3.22,5.17,3.22,.85,0,1.65-.2,2.39-.6,2.6-1.42,3.46-4.91,1.9-7.77-1.08-1.99-3.06-3.22-5.17-3.22Z"/>
          <rect class="cls-4" x="157.15" y="39.7" width="2.04" height=".84" transform="translate(-2.52 68.54) rotate(-24.26)"/>
          <rect class="cls-4" x="169.84" y="32.35" width="2.11" height=".84" transform="translate(25.3 128.07) rotate(-44.06)"/>
        </g>
        <path class="cls-12" d="M159.99,48.38c-.43,0-.69-.07-.72-.08-.24-.07-.38-.32-.31-.56,.07-.24,.32-.37,.55-.31,.09,.02,2.1,.5,4.81-2.13,.18-.17,.46-.17,.64,.01,.17,.18,.17,.46-.01,.64-2.15,2.09-3.99,2.43-4.96,2.43Z"/>
      </g>
      <path class="cls-12" d="M145.27,18.28s-5.65,9.57,1.83,17.27c0,0,8.21-11.24,8.18-17.69l-10.01,.43Z"/>
      <path class="cls-12" d="M146.4,21.88s7.96,13.53,27.18,2.65c0,0-1.23-7.71-8.14-8.98-6.91-1.27-19.04,6.33-19.04,6.33Z"/>
      <g>
        <g>
          <path class="cls-5" d="M181.68,29.71c1.46,2.55,.57,5.81-1.99,7.26-2.55,1.45-5.8,.57-7.26-1.98-1.46-2.56-.57-5.81,1.99-7.26,2.55-1.46,5.81-.57,7.26,1.98Z"/>
          <path class="cls-12" d="M176.22,35.15c-.17,0-.34-.09-.44-.26-.04-.07-.98-1.74-.4-3.33,.34-.93,1.09-1.61,2.26-2.04,.26-.09,.55,.04,.65,.3,.1,.26-.04,.55-.3,.65-.87,.32-1.43,.81-1.66,1.44-.42,1.14,.32,2.47,.33,2.49,.14,.24,.05,.55-.19,.69-.08,.04-.16,.07-.25,.07Z"/>
        </g>
        <path class="cls-4" d="M179.18,36.87c.39,.62,.2,1.44-.43,1.83-.63,.39-1.45,.2-1.84-.43-.39-.62-.2-1.45,.43-1.84,.63-.39,1.45-.2,1.84,.43Z"/>
      </g>
      <path class="cls-12" d="M168.49,14.7s-1.73-18.52,11.24-13.99c12.98,4.54,4.99,14.27-4.07,19.11l-7.17-5.12Z"/>
    </g>
    <g>
      <polygon class="cls-4" points="128.72 74.89 127.82 71.04 129.33 70.24 148.62 84.18 175.46 73.84 177.82 75.21 183.53 109.96 137.46 102.38 128.72 74.89"/>
      <path class="cls-11" d="M150.62,84.58l8.84,32.74,23.63-7.17c.26-.18,.41-.49,.41-.81l-4.61-34.49c0-.56-.59-.91-1.06-.63l-27.22,10.36Z"/>
      <path class="cls-11" d="M146.76,85l8.53,32.77-18.06-10.87c-.29-.12-.51-.39-.59-.7l-9.71-34.32c-.13-.55,.37-1.02,.89-.84l18.94,13.96Z"/>
      <polygon class="cls-6" points="146.76 85 150.62 84.58 159.46 117.32 155.28 117.77 146.76 85"/>
      <g class="cls-10">
        <polygon class="cls-4" points="154.02 86.78 156.31 96.2 177.14 89.95 175.79 79.76 154.02 86.78"/>
      </g>
    </g>
    <path class="cls-5" d="M126.2,129.64l.02,19.33s-1.09,10.31,12.03,10.32c13.11,.01,52.58-4.03,52.58-4.03l-4.47-12.89-40.55-2.23-1.04-12.88-18.57,2.38Z"/>
    <polygon points="189.43 96.2 187.84 125.27 215.4 129.08 190.15 123.11 189.43 96.2"/>
    <path class="cls-5" d="M157.24,122.79l32.38,36.72s5.66,8.94,14.48,5.04c4.52-2,6.17-9.93,6.17-9.93l5.14-25.53-23.07-3.19-1.04,10.34-26.79-18.91,3.12-4.96s.05-1.54-1.49-1.17l-3.34,3.12s-4.93-9.3-8.79-8.41c-3.87,.89-8.7,7.77,3.24,16.89Z"/>
    <polygon class="cls-8" points="144.38 112.64 145.81 140.14 165.58 141.23 147.93 137.73 144.38 112.64"/>
    <polygon class="cls-13" points="173.91 141.69 186.28 155.72 183.53 155.99 173.91 141.69"/>
  </g>
</svg>