<svg xmlns="http://www.w3.org/2000/svg" xmlns:xlink="http://www.w3.org/1999/xlink" width="1000" zoomAndPan="magnify" viewBox="0 0 750 187.499995" height="250" preserveAspectRatio="xMidYMid meet" version="1.0"><defs><g/></defs><g fill="#2e2e2e" fill-opacity="1"><g transform="translate(15.279282, 179.760278)"><g><path d="M 39.1875 1.25 C 36.03125 1.25 33.457031 0.734375 31.46875 -0.296875 C 29.476562 -1.335938 27.90625 -2.484375 26.75 -3.734375 C 25.332031 -5.222656 24.296875 -6.878906 23.640625 -8.703125 L 3.109375 -66.546875 C 2.773438 -67.378906 2.441406 -68.25 2.109375 -69.15625 C 1.859375 -69.90625 1.648438 -70.691406 1.484375 -71.515625 C 1.328125 -72.347656 1.25 -73.179688 1.25 -74.015625 C 1.25 -77.742188 2.53125 -80.851562 5.09375 -83.34375 C 7.664062 -85.832031 11.148438 -87.078125 15.546875 -87.078125 C 18.035156 -87.078125 20.109375 -86.554688 21.765625 -85.515625 C 23.421875 -84.484375 24.75 -83.34375 25.75 -82.09375 C 26.90625 -80.601562 27.859375 -78.945312 28.609375 -77.125 L 38.5625 -43.53125 L 39.8125 -43.53125 L 49.75 -77.125 C 50.414062 -78.945312 51.332031 -80.601562 52.5 -82.09375 C 53.488281 -83.34375 54.832031 -84.484375 56.53125 -85.515625 C 58.226562 -86.554688 60.320312 -87.078125 62.8125 -87.078125 C 67.207031 -87.078125 70.691406 -85.832031 73.265625 -83.34375 C 75.835938 -80.851562 77.125 -77.742188 77.125 -74.015625 C 77.125 -73.179688 77.019531 -72.347656 76.8125 -71.515625 C 76.601562 -70.691406 76.375 -69.90625 76.125 -69.15625 L 75.25 -66.546875 L 54.734375 -8.703125 C 54.066406 -6.878906 53.03125 -5.222656 51.625 -3.734375 C 50.457031 -2.484375 48.878906 -1.335938 46.890625 -0.296875 C 44.898438 0.734375 42.332031 1.25 39.1875 1.25 Z M 39.1875 1.25 "/></g></g></g><g fill="#2e2e2e" fill-opacity="1"><g transform="translate(97.615309, 179.760278)"><g><path d="M 21.140625 0 C 17.078125 0 13.78125 -1.242188 11.25 -3.734375 C 8.726562 -6.222656 7.46875 -9.332031 7.46875 -13.0625 L 7.46875 -74.015625 C 7.46875 -77.742188 8.726562 -80.851562 11.25 -83.34375 C 13.78125 -85.832031 17.078125 -87.078125 21.140625 -87.078125 L 59.703125 -87.078125 C 63.765625 -87.078125 67.0625 -85.832031 69.59375 -83.34375 C 72.125 -80.851562 73.390625 -77.742188 73.390625 -74.015625 C 73.390625 -70.285156 72.125 -67.175781 69.59375 -64.6875 C 67.0625 -62.195312 63.765625 -60.953125 59.703125 -60.953125 L 34.828125 -60.953125 L 34.828125 -55.96875 L 51.625 -55.96875 C 53.445312 -55.96875 55.164062 -55.632812 56.78125 -54.96875 C 58.394531 -54.3125 59.78125 -53.421875 60.9375 -52.296875 C 62.101562 -51.179688 63.019531 -49.878906 63.6875 -48.390625 C 64.351562 -46.898438 64.6875 -45.28125 64.6875 -43.53125 C 64.6875 -41.789062 64.351562 -40.175781 63.6875 -38.6875 C 63.019531 -37.195312 62.101562 -35.890625 60.9375 -34.765625 C 59.78125 -33.648438 58.394531 -32.757812 56.78125 -32.09375 C 55.164062 -31.425781 53.445312 -31.09375 51.625 -31.09375 L 34.828125 -31.09375 L 34.828125 -26.125 L 59.703125 -26.125 C 63.765625 -26.125 67.0625 -24.878906 69.59375 -22.390625 C 72.125 -19.898438 73.390625 -16.789062 73.390625 -13.0625 C 73.390625 -9.332031 72.125 -6.222656 69.59375 -3.734375 C 67.0625 -1.242188 63.765625 0 59.703125 0 Z M 21.140625 0 "/></g></g></g><g fill="#2e2e2e" fill-opacity="1"><g transform="translate(176.220132, 179.760278)"><g><path d="M 21.140625 0 C 17.078125 0 13.78125 -1.242188 11.25 -3.734375 C 8.726562 -6.222656 7.46875 -9.332031 7.46875 -13.0625 L 7.46875 -74.015625 C 7.46875 -77.742188 8.726562 -80.851562 11.25 -83.34375 C 13.78125 -85.832031 17.078125 -87.078125 21.140625 -87.078125 C 25.203125 -87.078125 28.707031 -85.832031 31.65625 -83.34375 C 34.601562 -80.851562 37.320312 -77.742188 39.8125 -74.015625 L 57.21875 -47.890625 L 58.46875 -47.890625 L 58.46875 -74.015625 C 58.46875 -77.742188 59.726562 -80.851562 62.25 -83.34375 C 64.78125 -85.832031 68.078125 -87.078125 72.140625 -87.078125 C 76.203125 -87.078125 79.5 -85.832031 82.03125 -83.34375 C 84.5625 -80.851562 85.828125 -77.742188 85.828125 -74.015625 L 85.828125 -13.0625 C 85.828125 -9.332031 84.5625 -6.222656 82.03125 -3.734375 C 79.5 -1.242188 76.203125 0 72.140625 0 C 68.078125 0 64.570312 -1.242188 61.625 -3.734375 C 58.6875 -6.222656 55.972656 -9.332031 53.484375 -13.0625 L 36.078125 -39.1875 L 34.828125 -39.1875 L 34.828125 -13.0625 C 34.828125 -9.332031 33.5625 -6.222656 31.03125 -3.734375 C 28.5 -1.242188 25.203125 0 21.140625 0 Z M 21.140625 0 "/></g></g></g><g fill="#2e2e2e" fill-opacity="1"><g transform="translate(273.480977, 179.760278)"><g><path d="M 36.078125 0 C 32.015625 0 28.71875 -1.242188 26.1875 -3.734375 C 23.65625 -6.222656 22.390625 -9.332031 22.390625 -13.0625 L 22.390625 -60.953125 L 13.6875 -60.953125 C 9.625 -60.953125 6.328125 -62.195312 3.796875 -64.6875 C 1.265625 -67.175781 0 -70.285156 0 -74.015625 C 0 -77.742188 1.265625 -80.851562 3.796875 -83.34375 C 6.328125 -85.832031 9.625 -87.078125 13.6875 -87.078125 L 58.46875 -87.078125 C 62.53125 -87.078125 65.820312 -85.832031 68.34375 -83.34375 C 70.875 -80.851562 72.140625 -77.742188 72.140625 -74.015625 C 72.140625 -70.285156 70.875 -67.175781 68.34375 -64.6875 C 65.820312 -62.195312 62.53125 -60.953125 58.46875 -60.953125 L 49.75 -60.953125 L 49.75 -13.0625 C 49.75 -9.332031 48.484375 -6.222656 45.953125 -3.734375 C 43.429688 -1.242188 40.140625 0 36.078125 0 Z M 36.078125 0 "/></g></g></g><g fill="#2e2e2e" fill-opacity="1"><g transform="translate(349.598352, 179.760278)"><g><path d="M 43.53125 2.484375 C 37.8125 2.484375 32.648438 1.632812 28.046875 -0.0625 C 23.441406 -1.757812 19.519531 -4.160156 16.28125 -7.265625 C 13.050781 -10.378906 10.566406 -14.113281 8.828125 -18.46875 C 7.085938 -22.820312 6.21875 -27.65625 6.21875 -32.96875 L 6.21875 -74.015625 C 6.21875 -77.742188 7.484375 -80.851562 10.015625 -83.34375 C 12.546875 -85.832031 15.84375 -87.078125 19.90625 -87.078125 C 23.96875 -87.078125 27.257812 -85.832031 29.78125 -83.34375 C 32.3125 -80.851562 33.578125 -77.742188 33.578125 -74.015625 L 33.578125 -32.96875 C 33.578125 -30.144531 34.445312 -27.882812 36.1875 -26.1875 C 37.9375 -24.488281 40.382812 -23.640625 43.53125 -23.640625 C 46.6875 -23.640625 49.132812 -24.488281 50.875 -26.1875 C 52.613281 -27.882812 53.484375 -30.144531 53.484375 -32.96875 L 53.484375 -74.015625 C 53.484375 -77.742188 54.75 -80.851562 57.28125 -83.34375 C 59.8125 -85.832031 63.109375 -87.078125 67.171875 -87.078125 C 71.234375 -87.078125 74.53125 -85.832031 77.0625 -83.34375 C 79.59375 -80.851562 80.859375 -77.742188 80.859375 -74.015625 L 80.859375 -32.96875 C 80.859375 -27.65625 79.984375 -22.820312 78.234375 -18.46875 C 76.492188 -14.113281 74.003906 -10.378906 70.765625 -7.265625 C 67.535156 -4.160156 63.617188 -1.757812 59.015625 -0.0625 C 54.421875 1.632812 49.257812 2.484375 43.53125 2.484375 Z M 43.53125 2.484375 "/></g></g></g><g fill="#2e2e2e" fill-opacity="1"><g transform="translate(440.640535, 179.760278)"><g><path d="M 21.140625 0 C 17.078125 0 13.78125 -1.242188 11.25 -3.734375 C 8.726562 -6.222656 7.46875 -9.332031 7.46875 -13.0625 L 7.46875 -74.015625 C 7.46875 -77.742188 8.726562 -80.851562 11.25 -83.34375 C 13.78125 -85.832031 17.078125 -87.078125 21.140625 -87.078125 L 44.78125 -87.078125 C 50.082031 -87.078125 54.804688 -86.347656 58.953125 -84.890625 C 63.109375 -83.441406 66.613281 -81.410156 69.46875 -78.796875 C 72.332031 -76.191406 74.53125 -73.101562 76.0625 -69.53125 C 77.59375 -65.96875 78.359375 -62.070312 78.359375 -57.84375 C 78.359375 -54.195312 77.835938 -51.085938 76.796875 -48.515625 C 75.765625 -45.941406 74.628906 -43.828125 73.390625 -42.171875 C 71.898438 -40.179688 70.242188 -38.5625 68.421875 -37.3125 L 76.5 -22.390625 C 77.082031 -21.304688 77.582031 -20.1875 78 -19.03125 C 78.40625 -18.039062 78.773438 -16.960938 79.109375 -15.796875 C 79.441406 -14.640625 79.609375 -13.519531 79.609375 -12.4375 C 79.609375 -8.957031 78.34375 -6.015625 75.8125 -3.609375 C 73.28125 -1.203125 69.984375 0 65.921875 0 C 63.847656 0 62.148438 -0.304688 60.828125 -0.921875 C 59.503906 -1.546875 58.425781 -2.273438 57.59375 -3.109375 C 56.675781 -4.023438 55.929688 -5.0625 55.359375 -6.21875 L 43.53125 -28.609375 L 34.828125 -28.609375 L 34.828125 -13.0625 C 34.828125 -9.332031 33.5625 -6.222656 31.03125 -3.734375 C 28.5 -1.242188 25.203125 0 21.140625 0 Z M 44.78125 -53.484375 C 46.351562 -53.484375 47.570312 -53.894531 48.4375 -54.71875 C 49.3125 -55.550781 49.75 -56.59375 49.75 -57.84375 C 49.75 -59.082031 49.3125 -60.113281 48.4375 -60.9375 C 47.570312 -61.769531 46.351562 -62.1875 44.78125 -62.1875 L 34.828125 -62.1875 L 34.828125 -53.484375 Z M 44.78125 -53.484375 "/></g></g></g><g fill="#2e2e2e" fill-opacity="1"><g transform="translate(529.195234, 179.760278)"><g><path d="M 21.140625 0 C 17.078125 0 13.78125 -1.242188 11.25 -3.734375 C 8.726562 -6.222656 7.46875 -9.332031 7.46875 -13.0625 L 7.46875 -74.015625 C 7.46875 -77.742188 8.726562 -80.851562 11.25 -83.34375 C 13.78125 -85.832031 17.078125 -87.078125 21.140625 -87.078125 L 59.703125 -87.078125 C 63.765625 -87.078125 67.0625 -85.832031 69.59375 -83.34375 C 72.125 -80.851562 73.390625 -77.742188 73.390625 -74.015625 C 73.390625 -70.285156 72.125 -67.175781 69.59375 -64.6875 C 67.0625 -62.195312 63.765625 -60.953125 59.703125 -60.953125 L 34.828125 -60.953125 L 34.828125 -55.96875 L 51.625 -55.96875 C 53.445312 -55.96875 55.164062 -55.632812 56.78125 -54.96875 C 58.394531 -54.3125 59.78125 -53.421875 60.9375 -52.296875 C 62.101562 -51.179688 63.019531 -49.878906 63.6875 -48.390625 C 64.351562 -46.898438 64.6875 -45.28125 64.6875 -43.53125 C 64.6875 -41.789062 64.351562 -40.175781 63.6875 -38.6875 C 63.019531 -37.195312 62.101562 -35.890625 60.9375 -34.765625 C 59.78125 -33.648438 58.394531 -32.757812 56.78125 -32.09375 C 55.164062 -31.425781 53.445312 -31.09375 51.625 -31.09375 L 34.828125 -31.09375 L 34.828125 -26.125 L 59.703125 -26.125 C 63.765625 -26.125 67.0625 -24.878906 69.59375 -22.390625 C 72.125 -19.898438 73.390625 -16.789062 73.390625 -13.0625 C 73.390625 -9.332031 72.125 -6.222656 69.59375 -3.734375 C 67.0625 -1.242188 63.765625 0 59.703125 0 Z M 21.140625 0 "/></g></g></g><g fill="#2e2e2e" fill-opacity="1"><g transform="translate(559.150456, 66.64256)"><g><path d="M 25.015625 1.71875 C 21.453125 1.71875 18.234375 1.210938 15.359375 0.203125 C 12.484375 -0.796875 10.035156 -2.023438 8.015625 -3.484375 C 6.003906 -4.953125 4.453125 -6.550781 3.359375 -8.28125 C 2.265625 -10.007812 1.71875 -11.5625 1.71875 -12.9375 C 1.71875 -14.195312 1.960938 -15.398438 2.453125 -16.546875 C 2.941406 -17.703125 3.617188 -18.710938 4.484375 -19.578125 C 5.347656 -20.441406 6.351562 -21.128906 7.5 -21.640625 C 8.65625 -22.160156 9.894531 -22.421875 11.21875 -22.421875 C 12.070312 -22.421875 12.875 -22.273438 13.625 -21.984375 C 14.375 -21.703125 15.050781 -21.375 15.65625 -21 C 16.257812 -20.625 16.757812 -20.25 17.15625 -19.875 C 17.5625 -19.5 17.878906 -19.195312 18.109375 -18.96875 C 18.335938 -18.738281 18.65625 -18.4375 19.0625 -18.0625 C 19.46875 -17.695312 19.96875 -17.328125 20.5625 -16.953125 C 21.164062 -16.578125 21.84375 -16.242188 22.59375 -15.953125 C 23.34375 -15.671875 24.148438 -15.53125 25.015625 -15.53125 C 26.335938 -15.53125 27.382812 -15.890625 28.15625 -16.609375 C 28.9375 -17.328125 29.328125 -18.113281 29.328125 -18.96875 C 29.328125 -19.832031 28.9375 -20.625 28.15625 -21.34375 C 27.382812 -22.0625 26.335938 -22.421875 25.015625 -22.421875 C 22.421875 -22.421875 20.332031 -23.179688 18.75 -24.703125 C 17.175781 -26.234375 16.390625 -28.207031 16.390625 -30.625 C 16.390625 -33.03125 17.191406 -34.992188 18.796875 -36.515625 C 20.410156 -38.046875 22.625 -38.8125 25.4375 -38.8125 C 26.757812 -38.8125 27.738281 -39.097656 28.375 -39.671875 C 29.007812 -40.242188 29.328125 -40.960938 29.328125 -41.828125 C 29.328125 -42.691406 29.007812 -43.410156 28.375 -43.984375 C 27.738281 -44.554688 26.757812 -44.84375 25.4375 -44.84375 C 24.695312 -44.84375 23.976562 -44.695312 23.28125 -44.40625 C 22.59375 -44.125 21.960938 -43.796875 21.390625 -43.421875 C 20.816406 -43.046875 20.328125 -42.671875 19.921875 -42.296875 C 19.515625 -41.929688 19.195312 -41.632812 18.96875 -41.40625 C 18.738281 -41.175781 18.421875 -40.875 18.015625 -40.5 C 17.617188 -40.125 17.117188 -39.75 16.515625 -39.375 C 15.910156 -39 15.234375 -38.664062 14.484375 -38.375 C 13.742188 -38.09375 12.941406 -37.953125 12.078125 -37.953125 C 10.753906 -37.953125 9.515625 -38.195312 8.359375 -38.6875 C 7.210938 -39.175781 6.207031 -39.847656 5.34375 -40.703125 C 4.476562 -41.566406 3.800781 -42.570312 3.3125 -43.71875 C 2.832031 -44.875 2.59375 -46.113281 2.59375 -47.4375 C 2.59375 -48.8125 3.132812 -50.363281 4.21875 -52.09375 C 5.3125 -53.820312 6.863281 -55.414062 8.875 -56.875 C 10.894531 -58.34375 13.34375 -59.578125 16.21875 -60.578125 C 19.09375 -61.585938 22.3125 -62.09375 25.875 -62.09375 C 29.320312 -62.09375 32.46875 -61.546875 35.3125 -60.453125 C 38.164062 -59.367188 40.625 -57.960938 42.6875 -56.234375 C 44.757812 -54.503906 46.351562 -52.5625 47.46875 -50.40625 C 48.59375 -48.25 49.15625 -46.109375 49.15625 -43.984375 C 49.15625 -41.398438 48.679688 -39.273438 47.734375 -37.609375 C 46.785156 -35.941406 45.738281 -34.617188 44.59375 -33.640625 C 43.269531 -32.484375 41.773438 -31.617188 40.109375 -31.046875 L 40.109375 -30.1875 C 41.773438 -29.550781 43.269531 -28.660156 44.59375 -27.515625 C 45.738281 -26.535156 46.785156 -25.179688 47.734375 -23.453125 C 48.679688 -21.734375 49.15625 -19.519531 49.15625 -16.8125 C 49.15625 -14.570312 48.582031 -12.34375 47.4375 -10.125 C 46.289062 -7.914062 44.664062 -5.929688 42.5625 -4.171875 C 40.46875 -2.421875 37.9375 -1.003906 34.96875 0.078125 C 32.007812 1.171875 28.691406 1.71875 25.015625 1.71875 Z M 25.015625 1.71875 "/></g></g></g><g fill="#2e2e2e" fill-opacity="1"><g transform="translate(615.464203, 66.64256)"><g><path d="M 26.3125 1.71875 C 22.738281 1.71875 19.5 1.15625 16.59375 0.03125 C 13.695312 -1.082031 11.210938 -2.585938 9.140625 -4.484375 C 7.066406 -6.378906 5.457031 -8.601562 4.3125 -11.15625 C 3.164062 -13.71875 2.59375 -16.46875 2.59375 -19.40625 C 2.59375 -21.25 2.820312 -23.0625 3.28125 -24.84375 C 3.738281 -26.625 4.285156 -28.234375 4.921875 -29.671875 C 5.609375 -31.335938 6.410156 -32.945312 7.328125 -34.5 L 18.109375 -53.46875 C 18.628906 -54.738281 19.347656 -55.890625 20.265625 -56.921875 C 21.015625 -57.785156 21.992188 -58.578125 23.203125 -59.296875 C 24.410156 -60.015625 25.875 -60.375 27.59375 -60.375 C 30.644531 -60.375 33.0625 -59.507812 34.84375 -57.78125 C 36.625 -56.0625 37.515625 -53.90625 37.515625 -51.3125 C 37.515625 -50.738281 37.425781 -50.164062 37.25 -49.59375 C 37.082031 -49.019531 36.882812 -48.472656 36.65625 -47.953125 C 36.425781 -47.316406 36.140625 -46.710938 35.796875 -46.140625 L 31.484375 -38.8125 C 34.179688 -38.582031 36.664062 -37.945312 38.9375 -36.90625 C 41.207031 -35.875 43.160156 -34.507812 44.796875 -32.8125 C 46.441406 -31.125 47.722656 -29.140625 48.640625 -26.859375 C 49.566406 -24.585938 50.03125 -22.101562 50.03125 -19.40625 C 50.03125 -16.46875 49.453125 -13.71875 48.296875 -11.15625 C 47.148438 -8.601562 45.539062 -6.378906 43.46875 -4.484375 C 41.394531 -2.585938 38.90625 -1.082031 36 0.03125 C 33.101562 1.15625 29.875 1.71875 26.3125 1.71875 Z M 26.3125 -15.53125 C 27.394531 -15.53125 28.3125 -15.898438 29.0625 -16.640625 C 29.8125 -17.390625 30.1875 -18.3125 30.1875 -19.40625 C 30.1875 -20.5 29.8125 -21.414062 29.0625 -22.15625 C 28.3125 -22.90625 27.394531 -23.28125 26.3125 -23.28125 C 25.21875 -23.28125 24.296875 -22.90625 23.546875 -22.15625 C 22.796875 -21.414062 22.421875 -20.5 22.421875 -19.40625 C 22.421875 -18.3125 22.796875 -17.390625 23.546875 -16.640625 C 24.296875 -15.898438 25.21875 -15.53125 26.3125 -15.53125 Z M 26.3125 -15.53125 "/></g></g></g><g fill="#2e2e2e" fill-opacity="1"><g transform="translate(671.77795, 66.64256)"><g><path d="M 25.875 1.71875 C 22.3125 1.71875 19.09375 1.210938 16.21875 0.203125 C 13.34375 -0.796875 10.894531 -2.023438 8.875 -3.484375 C 6.863281 -4.953125 5.3125 -6.550781 4.21875 -8.28125 C 3.132812 -10.007812 2.59375 -11.5625 2.59375 -12.9375 C 2.59375 -14.195312 2.832031 -15.398438 3.3125 -16.546875 C 3.800781 -17.703125 4.476562 -18.710938 5.34375 -19.578125 C 6.207031 -20.441406 7.210938 -21.128906 8.359375 -21.640625 C 9.515625 -22.160156 10.753906 -22.421875 12.078125 -22.421875 C 12.941406 -22.421875 13.742188 -22.273438 14.484375 -21.984375 C 15.234375 -21.703125 15.910156 -21.375 16.515625 -21 C 17.117188 -20.625 17.617188 -20.25 18.015625 -19.875 C 18.421875 -19.5 18.738281 -19.195312 18.96875 -18.96875 C 19.195312 -18.738281 19.515625 -18.4375 19.921875 -18.0625 C 20.328125 -17.695312 20.800781 -17.328125 21.34375 -16.953125 C 21.894531 -16.578125 22.484375 -16.242188 23.109375 -15.953125 C 23.742188 -15.671875 24.378906 -15.53125 25.015625 -15.53125 C 26.734375 -15.53125 28.023438 -15.914062 28.890625 -16.6875 C 29.753906 -17.46875 30.1875 -18.519531 30.1875 -19.84375 C 30.1875 -21.164062 29.753906 -22.210938 28.890625 -22.984375 C 28.023438 -23.765625 26.734375 -24.15625 25.015625 -24.15625 L 14.65625 -24.15625 C 11.84375 -24.15625 9.554688 -25.015625 7.796875 -26.734375 C 6.046875 -28.460938 5.171875 -30.617188 5.171875 -33.203125 L 5.171875 -51.3125 C 5.171875 -53.90625 6.046875 -56.0625 7.796875 -57.78125 C 9.554688 -59.507812 11.84375 -60.375 14.65625 -60.375 L 37.953125 -60.375 C 40.765625 -60.375 43.046875 -59.507812 44.796875 -57.78125 C 46.554688 -56.0625 47.4375 -53.90625 47.4375 -51.3125 C 47.4375 -48.726562 46.554688 -46.570312 44.796875 -44.84375 C 43.046875 -43.125 40.765625 -42.265625 37.953125 -42.265625 L 24.15625 -42.265625 L 24.15625 -39.671875 L 25.875 -39.671875 C 29.550781 -39.671875 32.867188 -39.125 35.828125 -38.03125 C 38.796875 -36.9375 41.328125 -35.441406 43.421875 -33.546875 C 45.523438 -31.648438 47.148438 -29.453125 48.296875 -26.953125 C 49.453125 -24.453125 50.03125 -21.789062 50.03125 -18.96875 C 50.03125 -16.15625 49.453125 -13.5 48.296875 -11 C 47.148438 -8.5 45.523438 -6.296875 43.421875 -4.390625 C 41.328125 -2.492188 38.796875 -1.003906 35.828125 0.078125 C 32.867188 1.171875 29.550781 1.71875 25.875 1.71875 Z M 25.875 1.71875 "/></g></g></g></svg>